<svg width="99" height="24" viewBox="0 0 99 24" fill="none" xmlns="http://www.w3.org/2000/svg">
    <path
        d="M13.9427 18.3043H9.96479L3.71014 10.0901V18.3043H0.257568V0.773911H3.71014V8.51235L9.7146 0.773911H13.6926L7.21274 9.28869L13.9427 18.3043Z"
        fill="#161616" />
    <path
        d="M26.0346 16.7516C24.7503 18.0205 23.1824 18.655 21.3311 18.655C19.4797 18.655 17.9118 18.0205 16.6276 16.7516C15.3599 15.4661 14.7261 13.8967 14.7261 12.0435C14.7261 10.1903 15.3599 8.62922 16.6276 7.36035C17.9118 6.07478 19.4797 5.432 21.3311 5.432C23.1824 5.432 24.7503 6.07478 26.0346 7.36035C27.3188 8.62922 27.961 10.1903 27.961 12.0435C27.961 13.8967 27.3188 15.4661 26.0346 16.7516ZM18.9042 14.5228C19.5547 15.1739 20.3637 15.4995 21.3311 15.4995C22.2984 15.4995 23.1074 15.1739 23.7579 14.5228C24.4083 13.8716 24.7336 13.0452 24.7336 12.0435C24.7336 11.0417 24.4083 10.2153 23.7579 9.56417C23.1074 8.91304 22.2984 8.58748 21.3311 8.58748C20.3637 8.58748 19.5547 8.91304 18.9042 9.56417C18.2704 10.2153 17.9535 11.0417 17.9535 12.0435C17.9535 13.0452 18.2704 13.8716 18.9042 14.5228Z"
        fill="#161616" />
    <path
        d="M38.5126 5.432C40.1972 5.432 41.6316 6.07478 42.8158 7.36035C44.0167 8.62922 44.6171 10.1903 44.6171 12.0435C44.6171 13.8967 44.0167 15.4661 42.8158 16.7516C41.6316 18.0205 40.1972 18.655 38.5126 18.655C36.7613 18.655 35.4103 18.0456 34.4596 16.8268V23.313H31.2322V5.78261H34.4596V7.26017C35.4103 6.04139 36.7613 5.432 38.5126 5.432ZM35.4353 14.5979C36.0858 15.249 36.9114 15.5746 37.9121 15.5746C38.9129 15.5746 39.7385 15.249 40.389 14.5979C41.0561 13.9301 41.3897 13.0786 41.3897 12.0435C41.3897 11.0083 41.0561 10.1652 40.389 9.51409C39.7385 8.84626 38.9129 8.51235 37.9121 8.51235C36.9114 8.51235 36.0858 8.84626 35.4353 9.51409C34.7848 10.1652 34.4596 11.0083 34.4596 12.0435C34.4596 13.0786 34.7848 13.9301 35.4353 14.5979Z"
        fill="#161616" />
    <path
        d="M55.5614 5.78261H59.014L54.4606 18.3043C53.8101 20.1075 52.9428 21.4097 51.8586 22.2111C50.7912 23.0292 49.4569 23.3965 47.8557 23.313V20.3078C48.723 20.3245 49.4068 20.1409 49.9072 19.7569C50.4242 19.3729 50.8329 18.7551 51.1331 17.9037L46.0043 5.78261H49.5319L52.7843 14.1972L55.5614 5.78261Z"
        fill="#161616" />
    <path
        d="M67.0164 18.655C65.1317 18.655 63.5555 18.0205 62.2879 16.7516C61.0369 15.4828 60.4115 13.9134 60.4115 12.0435C60.4115 10.1736 61.0369 8.60417 62.2879 7.3353C63.5555 6.06643 65.1317 5.432 67.0164 5.432C68.234 5.432 69.3431 5.72417 70.3439 6.30852C71.3446 6.89287 72.1035 7.67756 72.6206 8.66261L69.8435 10.2904C69.5933 9.77287 69.2097 9.36382 68.6926 9.0633C68.1923 8.76278 67.6252 8.61252 66.9914 8.61252C66.024 8.61252 65.2234 8.93809 64.5896 9.58922C63.9558 10.2237 63.6389 11.0417 63.6389 12.0435C63.6389 13.0285 63.9558 13.8466 64.5896 14.4977C65.2234 15.1322 66.024 15.4494 66.9914 15.4494C67.6419 15.4494 68.2173 15.3075 68.7177 15.0236C69.2347 14.7231 69.6183 14.3141 69.8685 13.7965L72.6706 15.3993C72.1202 16.3843 71.3446 17.1774 70.3439 17.7784C69.3431 18.3628 68.234 18.655 67.0164 18.655Z"
        fill="#161616" />
    <path
        d="M84.6899 5.78261H87.9173V18.3043H84.6899V16.8268C83.7225 18.0456 82.3632 18.655 80.6119 18.655C78.944 18.655 77.5096 18.0205 76.3087 16.7516C75.1245 15.4661 74.5323 13.8967 74.5323 12.0435C74.5323 10.1903 75.1245 8.62922 76.3087 7.36035C77.5096 6.07478 78.944 5.432 80.6119 5.432C82.3632 5.432 83.7225 6.04139 84.6899 7.26017V5.78261ZM78.7355 14.5979C79.386 15.249 80.2116 15.5746 81.2123 15.5746C82.2131 15.5746 83.0387 15.249 83.6892 14.5979C84.3563 13.9301 84.6899 13.0786 84.6899 12.0435C84.6899 11.0083 84.3563 10.1652 83.6892 9.51409C83.0387 8.84626 82.2131 8.51235 81.2123 8.51235C80.2116 8.51235 79.386 8.84626 78.7355 9.51409C78.085 10.1652 77.7598 11.0083 77.7598 12.0435C77.7598 13.0786 78.085 13.9301 78.7355 14.5979Z"
        fill="#161616" />
    <path
        d="M99 8.888H96.1729V14.097C96.1729 14.5311 96.2813 14.8483 96.4981 15.0487C96.7149 15.249 97.0318 15.3659 97.4488 15.3993C97.8658 15.416 98.3828 15.4076 99 15.3743V18.3043C96.7816 18.5548 95.2138 18.3461 94.2965 17.6783C93.3958 17.0104 92.9454 15.8167 92.9454 14.097V8.888H90.7688V5.78261H92.9454V3.25322L96.1729 2.27652V5.78261H99V8.888Z"
        fill="#161616" />
</svg>
    