<svg width="48" height="48" viewBox="0 0 48 48" fill="none" xmlns="http://www.w3.org/2000/svg">
    <rect width="47.9523" height="48" fill="#9C84F9" />
    <mask id="mask0_239_11927" style="mask-type:alpha" maskUnits="userSpaceOnUse" x="0" y="0"
        width="48" height="48">
        <rect width="47.9523" height="48" fill="#EDFE79" />
    </mask>
    <g mask="url(#mask0_239_11927)">
        <path
            d="M10.9891 48.6781L16.3864 5.99997L23.6951 14.6111L30.779 5.99997L36.9633 48.6781H10.9891Z"
            fill="#3D3D3D" />
        <path fill-rule="evenodd" clip-rule="evenodd"
            d="M16.3864 5.99997L10.9891 48.6781H36.9633L30.779 5.99997L23.6951 14.6111L16.3864 5.99997ZM30.2807 7.78929L23.7041 15.7838L16.9161 7.7863L11.8403 47.9227H36.0963L30.2807 7.78929Z"
            fill="#161616" />
        <path
            d="M14.6046 20.6278C15.1948 16.0428 19.0984 12.6094 23.7213 12.6094C28.2892 12.6094 32.1641 15.9638 32.8184 20.4845L35.0338 35.7898C36.0207 42.6077 30.733 48.7158 23.8441 48.7158C17.0268 48.7158 11.7599 42.7276 12.6303 35.9661L14.6046 20.6278Z"
            fill="#161616" />
        <path d="M15.6405 25.9038H31.6953L36.9258 48.7159H10.9891L15.6405 25.9038Z" fill="#161616" />
        <g clip-path="url(#clip0_239_11927)">
            <path
                d="M18.3353 21.5605L18.2229 21.6738L18.5227 22.0515L19.01 22.3914L20.3968 22.7313L21.7086 22.7691L22.4207 22.4292V22.0515L21.896 21.6738L20.884 21.3716L19.9095 21.1828L18.6352 21.3716L18.3353 21.5605Z"
                fill="#FEDA00" />
            <path
                d="M29.0173 21.5227L29.1298 21.636L28.8299 22.0137L28.3427 22.3536L26.9559 22.6935L25.644 22.7313L24.9319 22.3914L24.8944 22.2403L25.4566 21.636L26.4686 21.3339L27.4431 21.145L28.7175 21.3339L29.0173 21.5227Z"
                fill="#FEDA00" />
            <path
                d="M21.1933 22.8777C20.7589 22.8777 20.2209 22.8159 19.5838 22.6681C18.8428 22.4963 18.377 22.22 18.1994 21.8468C18.0582 21.5509 18.1535 21.2995 18.1739 21.2518C18.5272 20.2359 19.1427 18.9362 20.0719 18.5043C20.4523 18.3273 20.8483 18.3167 21.2486 18.472C21.5356 18.5835 21.7979 18.9429 22.028 19.5399C22.4252 20.572 22.651 22.1558 22.5044 22.451C22.3828 22.6953 21.9402 22.8781 21.1937 22.8781L21.1933 22.8777ZM18.3868 21.3444C18.3817 21.3554 18.3048 21.5332 18.4111 21.7507C18.513 21.9592 18.8083 22.2484 19.6359 22.4403C20.5679 22.6563 21.1882 22.6622 21.5446 22.6287C22.017 22.5846 22.2425 22.4537 22.2962 22.3461C22.3828 22.1716 22.2229 20.6906 21.8092 19.6199C21.6073 19.0966 21.3842 18.7746 21.1647 18.6895C20.8251 18.5575 20.4903 18.5665 20.1692 18.7159C19.5007 19.0268 18.869 19.9561 18.3915 21.333L18.3868 21.3448V21.3444Z"
                fill="white" fill-opacity="0.4" />
            <path
                d="M26.2632 22.9388C25.4575 22.9388 24.9317 22.7331 24.7913 22.451C24.6372 22.1416 24.8737 20.2823 25.3222 19.2739C25.528 18.8109 25.7653 18.5397 26.0264 18.468C26.6682 18.2923 27.3022 18.4913 27.8601 19.0434C28.353 19.5312 28.7894 20.295 29.1222 21.2526C29.1414 21.2995 29.2508 21.5946 29.0854 21.9308C28.8976 22.3122 28.4396 22.5897 27.7245 22.7556C27.1724 22.8837 26.6804 22.9388 26.2636 22.9388H26.2632ZM26.4835 18.6387C26.353 18.6387 26.2208 18.6568 26.0872 18.6934C25.899 18.7451 25.7076 18.9787 25.5339 19.3693C25.0544 20.4471 24.9082 22.1645 24.9987 22.3465C25.1234 22.5972 26.0354 22.9077 27.6715 22.5282C28.3032 22.3816 28.7192 22.1408 28.874 21.8319C29.0038 21.573 28.9109 21.3515 28.907 21.342L28.9034 21.333C28.5823 20.4077 28.1648 19.6731 27.6966 19.2097C27.3128 18.8294 26.9058 18.6383 26.4831 18.6383L26.4835 18.6387Z"
                fill="white" fill-opacity="0.4" />
            <path
                d="M18.3353 21.5605L18.2229 21.6738L18.5227 22.0515L19.01 22.3914L20.3968 22.7313L21.7086 22.7691L22.4207 22.4292V22.0515L21.896 21.6738L20.884 21.3716L19.9095 21.1828L18.6352 21.3716L18.3353 21.5605Z"
                fill="#FEDA00" />
            <path
                d="M29.0173 21.5227L29.1298 21.636L28.8299 22.0137L28.3427 22.3536L26.9559 22.6935L25.644 22.7313L24.9319 22.3914L24.8944 22.2403L25.4566 21.636L26.4686 21.3339L27.4431 21.145L28.7175 21.3339L29.0173 21.5227Z"
                fill="#FEDA00" />
            <path
                d="M21.1933 22.8777C20.7589 22.8777 20.2209 22.8159 19.5838 22.6681C18.8428 22.4963 18.377 22.22 18.1994 21.8468C18.0582 21.5509 18.1535 21.2995 18.1739 21.2518C18.5272 20.2359 19.1427 18.9362 20.0719 18.5043C20.4523 18.3273 20.8483 18.3167 21.2486 18.472C21.5356 18.5835 21.7979 18.9429 22.028 19.5399C22.4252 20.572 22.651 22.1558 22.5044 22.451C22.3828 22.6953 21.9402 22.8781 21.1937 22.8781L21.1933 22.8777ZM18.3868 21.3444C18.3817 21.3554 18.3048 21.5332 18.4111 21.7507C18.513 21.9592 18.8083 22.2484 19.6359 22.4403C20.5679 22.6563 21.1882 22.6622 21.5446 22.6287C22.017 22.5846 22.2425 22.4537 22.2962 22.3461C22.3828 22.1716 22.2229 20.6906 21.8092 19.6199C21.6073 19.0966 21.3842 18.7746 21.1647 18.6895C20.8251 18.5575 20.4903 18.5665 20.1692 18.7159C19.5007 19.0268 18.869 19.9561 18.3915 21.333L18.3868 21.3448V21.3444Z"
                fill="white" />
            <path
                d="M19.5007 21.3168C19.4564 21.3168 19.4144 21.3097 19.3776 21.2971C19.3725 21.3326 19.3698 21.3688 19.3698 21.4059C19.3698 21.7771 19.6415 22.0778 19.9763 22.0778C20.3111 22.0778 20.5828 21.7767 20.5828 21.4059C20.5828 21.035 19.6524 21.3168 19.5011 21.3168H19.5007Z"
                fill="#161616" />
            <path
                d="M18.2731 21.6163C18.3892 21.4421 18.5793 21.3318 18.7699 21.2565C18.9996 21.1659 19.2455 21.1186 19.4905 21.0953C20.0065 21.0465 20.5397 21.0993 21.0392 21.2364C21.3352 21.3176 21.6258 21.4283 21.8888 21.5887C22.11 21.7235 22.3189 21.9 22.4264 22.1416C22.1272 21.8181 21.6677 21.6758 21.2545 21.569C20.7604 21.4413 20.2484 21.3676 19.7387 21.3487C19.4623 21.3385 19.1831 21.342 18.909 21.3834C18.6824 21.4177 18.4601 21.4792 18.2727 21.6159L18.2731 21.6163Z"
                fill="white" />
            <path
                d="M26.2633 22.9388C25.4576 22.9388 24.9318 22.7331 24.7915 22.451C24.6374 22.1416 24.8738 20.2824 25.3223 19.2739C25.5282 18.8109 25.7654 18.5398 26.0265 18.468C26.6683 18.2923 27.3023 18.4913 27.8602 19.0434C28.3531 19.5313 28.7895 20.295 29.1223 21.2526C29.1416 21.2995 29.2509 21.5946 29.0855 21.9308C28.8977 22.3123 28.4397 22.5897 27.7246 22.7556C27.1725 22.8837 26.6805 22.9388 26.2637 22.9388H26.2633ZM26.4837 18.6387C26.3531 18.6387 26.221 18.6568 26.0873 18.6934C25.8991 18.7451 25.7077 18.9788 25.5341 19.3693C25.0545 20.4471 24.9083 22.1645 24.9989 22.3465C25.1235 22.5972 26.0355 22.9077 27.6717 22.5282C28.3033 22.3816 28.7193 22.1408 28.8742 21.8319C29.0039 21.573 28.911 21.3515 28.9071 21.342L28.9036 21.333C28.5825 20.4077 28.1649 19.6731 27.6968 19.2097C27.3129 18.8294 26.9059 18.6383 26.4833 18.6383L26.4837 18.6387Z"
                fill="white" />
            <path
                d="M26.2622 21.4717C26.2085 21.4717 26.1587 21.4611 26.1163 21.4433C26.1081 21.4879 26.1034 21.534 26.1034 21.5809C26.1034 21.9521 26.3751 22.2528 26.7099 22.2528C27.0448 22.2528 27.3059 21.8413 27.3059 21.4701C27.3059 21.0989 26.4135 21.4713 26.2622 21.4713V21.4717Z"
                fill="#161616" />
            <path
                d="M29.1062 21.5872C28.9486 21.4796 28.7687 21.4291 28.5824 21.398C28.346 21.3586 28.1041 21.3503 27.8649 21.3535C27.3419 21.3606 26.8134 21.4236 26.3045 21.5458C26.0292 21.612 25.7548 21.6936 25.4983 21.8157C25.2753 21.9217 25.0725 22.0581 24.924 22.2587C25.0671 21.8189 25.5199 21.556 25.923 21.3925C26.397 21.2002 26.9161 21.1068 27.4258 21.095C27.7457 21.0875 28.0696 21.1103 28.3813 21.1872C28.6456 21.2526 28.938 21.3594 29.1059 21.5872H29.1062Z"
                fill="white" />
            <path
                d="M19.3636 26.4603C19.5125 26.6073 19.6611 26.7527 19.8152 26.8946C19.9975 27.0629 20.1979 27.2193 20.4041 27.3572C20.828 27.641 21.2773 27.8766 21.7564 28.0516C22.2869 28.2447 22.8425 28.3799 23.4031 28.4429C23.1985 28.4792 22.982 28.4752 22.7754 28.463C22.5241 28.4484 22.2743 28.4114 22.0293 28.3542C21.5239 28.236 21.0416 28.0315 20.6049 27.7501C20.0963 27.423 19.6745 26.9781 19.3632 26.4599L19.3636 26.4603Z"
                fill="white" />
            <path
                d="M19.0518 24.8883C18.962 24.9305 18.8687 24.9636 18.7871 25.0223C18.6809 25.0988 18.6087 25.2028 18.5781 25.3313C18.544 25.459 18.5519 25.5989 18.5629 25.7289C18.5715 25.8353 18.5856 25.9409 18.5985 26.0465C18.5131 25.9504 18.4574 25.8203 18.4237 25.6974C18.3829 25.5484 18.3743 25.3865 18.4237 25.2387C18.5138 24.9695 18.7824 24.8458 19.0514 24.8883H19.0518Z"
                fill="white" />
            <path
                d="M17.2859 20.4198C18.07 16.1968 21.1777 16.3722 21.2937 16.518C21.4098 16.6638 21.4972 17.0338 21.4388 17.1213C21.3807 17.2088 20.219 17.0338 18.9993 18.0261C17.8391 18.9703 17.2859 20.4198 17.2859 20.4198Z"
                fill="white" />
            <path
                d="M29.8794 20.7505C29.4548 16.6832 25.8535 17.0336 25.7375 17.1794C25.6214 17.3252 25.6904 17.5782 25.6214 17.763C25.5846 17.8615 27.0447 17.5585 28.2354 18.4637C29.4261 19.3685 29.8798 20.7501 29.8798 20.7501L29.8794 20.7505Z"
                fill="white" />
            <path
                d="M18.557 25.2678C18.6926 25.4282 18.8628 25.5563 19.0267 25.6863C19.2188 25.8389 19.4215 25.9791 19.6285 26.1108C20.0606 26.3866 20.5162 26.6274 20.9851 26.8343C21.8132 27.2 22.6734 27.4865 23.5634 27.6532C24.0664 27.7474 24.5722 27.7923 25.0839 27.7927C25.3364 27.7927 25.5897 27.7663 25.8394 27.732C25.9555 27.7158 26.0719 27.695 26.1868 27.6701C26.2385 27.6591 26.2876 27.6492 26.3322 27.6205C26.3609 27.602 26.402 27.5854 26.4369 27.5901C26.4805 27.596 26.5091 27.6418 26.4957 27.6839C26.4824 27.7253 26.4401 27.7367 26.402 27.7419C26.3758 27.7454 26.3499 27.7403 26.3236 27.7419C26.2981 27.7434 26.2723 27.7541 26.2476 27.7608C26.1887 27.7789 26.1284 27.7907 26.0684 27.8045C25.8331 27.8585 25.5936 27.9022 25.3532 27.9271C24.8424 27.9803 24.3334 27.9842 23.8218 27.9381C22.793 27.8455 21.7885 27.5279 20.8647 27.07C20.4076 26.8434 19.968 26.5742 19.5556 26.2735C19.3568 26.1289 19.16 25.9803 18.9733 25.8203C18.8098 25.68 18.6569 25.5252 18.488 25.392C18.4578 25.3679 18.4244 25.3451 18.4327 25.3001C18.4436 25.2418 18.5193 25.2229 18.557 25.2678Z"
                fill="white" />
        </g>
        <path fill-rule="evenodd" clip-rule="evenodd"
            d="M22.9956 24.4162L24.5149 24.8338L23.6636 25.2897C23.705 25.316 23.7476 25.3407 23.7922 25.3632C23.9332 25.4348 24.085 25.4917 24.2409 25.525C24.4015 25.5619 24.5668 25.5777 24.7308 25.5754C24.8445 25.5737 24.9534 25.5573 25.0637 25.5407L25.1293 25.5309C24.9053 25.7655 24.5031 25.8171 24.1787 25.738C23.9388 25.6796 23.6942 25.5446 23.552 25.3494L23.5497 25.3507L23.5369 25.3291C23.3346 25.4506 23.0644 25.4824 22.8254 25.4478C22.4951 25.3999 22.1404 25.2016 22.0183 24.9L22.0757 24.9336L22.0757 24.9336C22.1721 24.9903 22.2672 25.0462 22.3722 25.0902C22.5237 25.1538 22.683 25.2008 22.8457 25.2266C23.0028 25.254 23.1647 25.2579 23.3219 25.2441C23.3735 25.2397 23.424 25.2323 23.4739 25.2228L22.9956 24.4162ZM22.0183 24.9L22.0181 24.8996L22.0181 24.8999L22.0183 24.9ZM25.1293 25.5309L25.1297 25.5306L25.1296 25.5309L25.1293 25.5309Z"
            fill="#8A8A8A" />
        <path d="M14.2499 50L13.9501 36.0257L33.3276 35.1948L34.0023 49.5845L14.2499 50Z"
            fill="white" stroke="#161616" />
        <path opacity="0.2"
            d="M32.0533 36.7054C32.0533 36.9557 31.8521 37.1585 31.6037 37.1585C31.3554 37.1585 31.1538 36.9557 31.1538 36.7054C31.1538 36.4551 31.355 36.2523 31.6034 36.2523C31.8518 36.2523 32.053 36.4551 32.053 36.7054H32.0533Z"
            fill="#161616" />
        <path opacity="0.2"
            d="M16.4613 37.1586C16.4613 37.4089 16.2601 37.6117 16.0117 37.6117C15.7633 37.6117 15.5618 37.4089 15.5618 37.1586C15.5618 36.9083 15.763 36.7056 16.0114 36.7056C16.2598 36.7056 16.461 36.9083 16.461 37.1586H16.4613Z"
            fill="#161616" />
        <path fill-rule="evenodd" clip-rule="evenodd"
            d="M13.5209 27.1947C13.6415 27.1644 13.7635 27.2384 13.7935 27.3598L16.1923 37.0662C16.2223 37.1877 16.1489 37.3106 16.0284 37.3409C15.9079 37.3711 15.7858 37.2972 15.7558 37.1758L13.3571 27.4693C13.327 27.3479 13.4004 27.2249 13.5209 27.1947Z"
            fill="#8A8A8A" />
        <path fill-rule="evenodd" clip-rule="evenodd"
            d="M33.8234 25.9841C33.945 26.0097 34.023 26.1297 33.9976 26.2523L31.8237 36.7518C31.7984 36.8743 31.6792 36.9529 31.5577 36.9274C31.4361 36.9018 31.3581 36.7818 31.3834 36.6593L33.5573 26.1597C33.5827 26.0372 33.7018 25.9586 33.8234 25.9841Z"
            fill="#8A8A8A" />
        <path d="M33.9649 27.9811L33.6276 25.6394L33.8899 25.4884L34.752 26.2815L33.9649 27.9811Z"
            fill="#9C84F9" />
        <path d="M13.4629 29.1141L13.7627 26.7347L12.6383 27.2257L13.4629 29.1141Z" fill="#9C84F9" />
        <path
            d="M18.9229 42.1894C18.8655 42.1924 18.8151 42.1105 18.7717 41.9438C18.7281 41.7746 18.6983 41.6286 18.6821 41.5059C18.666 41.3832 18.6424 41.189 18.6116 40.9233C18.6069 40.8807 18.6029 40.8254 18.5995 40.7576C18.5952 40.6721 18.5985 40.6126 18.6093 40.5793C18.6226 40.5459 18.6455 40.5283 18.678 40.5267C18.7054 40.5253 18.727 40.5305 18.7426 40.5423C18.7605 40.5514 18.7764 40.5683 18.7901 40.5928L18.794 40.7439C18.802 40.9048 18.8172 41.0565 18.8393 41.1991C18.864 41.3416 18.8999 41.5326 18.9469 41.7722C18.9722 41.8768 18.9903 41.9629 19.0012 42.0304C19.0079 42.0653 19.0035 42.1009 18.9878 42.137C18.9719 42.1705 18.9503 42.188 18.9229 42.1894ZM18.7251 40.1196C18.6702 40.1224 18.6279 40.1031 18.5983 40.0618C18.5712 40.0203 18.5561 39.9681 18.5529 39.9053C18.5516 39.8776 18.5518 39.8574 18.5537 39.8447C18.5491 39.8046 18.5706 39.7834 18.618 39.7809C18.6529 39.7792 18.6883 39.7862 18.7241 39.802C18.7623 39.8152 18.7741 39.8259 18.7595 39.8342C18.7878 39.8983 18.8028 39.9493 18.8047 39.987C18.8064 40.0197 18.8002 40.0464 18.7863 40.0673C18.7722 40.0857 18.7518 40.1031 18.7251 40.1196Z"
            fill="#161616" />
        <path
            d="M19.3458 40.3224C19.271 40.3262 19.2189 40.2356 19.1896 40.0505C19.1602 39.8655 19.1417 39.6962 19.134 39.5429C19.1324 39.5102 19.135 39.4873 19.1419 39.4744C19.1486 39.4589 19.1663 39.4378 19.195 39.4112C19.2669 39.4478 19.3195 39.5498 19.3529 39.717C19.3887 39.8816 19.4105 40.0418 19.4184 40.1977C19.4205 40.2405 19.4171 40.2721 19.4081 40.2928C19.4015 40.3108 19.3808 40.3206 19.3458 40.3224Z"
            fill="#161616" />
        <path
            d="M22.1616 42.0243C22.1241 42.0262 22.1012 42.0173 22.0927 41.9975C22.084 41.9753 22.0786 41.9415 22.0763 41.8963C22.0779 41.8785 22.0782 41.8584 22.077 41.8357C22.0758 41.8106 22.0761 41.7917 22.0779 41.779C22.0868 41.6575 22.0886 41.5427 22.0832 41.4346C22.0712 41.1957 22.0219 41.0116 21.9353 40.8824C21.8487 40.7507 21.7192 40.6892 21.547 40.698C21.4522 40.7028 21.3586 40.7316 21.2661 40.7842C21.1762 40.8367 21.1031 40.8996 21.0467 40.9731C20.9928 41.0464 20.9674 41.112 20.9703 41.1699C20.9864 41.2422 21.0134 41.3303 21.0511 41.4342C21.0542 41.4467 21.0662 41.4852 21.0869 41.5497C21.1102 41.614 21.1231 41.6726 21.1258 41.7254L21.1331 41.7969C21.1351 41.8371 21.1162 41.8583 21.0763 41.8603C21.0263 41.8628 20.9835 41.8322 20.9478 41.7685C20.9146 41.7047 20.8758 41.6045 20.8314 41.4681C20.7871 41.3343 20.7453 41.2242 20.706 41.138C20.6666 41.0517 20.6154 40.9787 20.5524 40.9189C20.4893 40.8591 20.4116 40.8315 20.3193 40.8362C20.192 40.8427 20.0944 40.8918 20.0264 40.9835C19.961 41.0751 19.9315 41.185 19.9379 41.3133C19.9422 41.3988 19.9554 41.5116 19.9774 41.6516C19.9952 41.7566 20.006 41.8468 20.0098 41.9222C20.0121 41.9675 20.0088 42.0017 19.9999 42.0248C19.9911 42.048 19.9679 42.0605 19.9305 42.0624C19.8806 42.065 19.8448 42.0504 19.8232 42.0187C19.8015 41.9845 19.7889 41.9322 19.7853 41.8618C19.7784 41.7235 19.7625 41.5567 19.7377 41.3613C19.7339 41.3363 19.7257 41.2724 19.7131 41.1697C19.7003 41.0645 19.6937 40.9589 19.6934 40.853L19.6909 40.7284C19.7051 40.7125 19.7222 40.7041 19.7422 40.7031C19.7696 40.7017 19.793 40.7181 19.8122 40.7524C19.8338 40.7841 19.8463 40.8339 19.8497 40.9018C19.8839 40.8345 19.9358 40.7726 20.0055 40.7161C20.0752 40.6596 20.15 40.6293 20.2299 40.6253C20.3671 40.6183 20.4821 40.6414 20.5749 40.6946C20.67 40.7452 20.7581 40.8315 20.8393 40.9534C20.9027 40.8216 21.0021 40.7069 21.1373 40.6092C21.275 40.5115 21.4187 40.4587 21.5684 40.4511C21.7231 40.4432 21.8546 40.4958 21.9629 40.6087C22.0736 40.7216 22.1569 40.8598 22.2126 41.0233C22.2709 41.1867 22.3035 41.3389 22.3106 41.4797C22.3169 41.6054 22.3117 41.7267 22.2951 41.8435C22.2809 41.9602 22.2364 42.0205 22.1616 42.0243Z"
            fill="#161616" />
        <path
            d="M23.9303 41.9454C23.8959 41.9573 23.8762 41.9633 23.8712 41.9636C23.8512 41.9646 23.8295 41.9556 23.806 41.9366C23.7175 41.8176 23.6468 41.6057 23.594 41.3008C23.5436 40.9958 23.5129 40.7326 23.5018 40.5113C23.5 40.4761 23.5241 40.4573 23.574 40.4547C23.6489 40.4509 23.6884 40.4905 23.6926 40.5735C23.6937 40.5961 23.6934 40.615 23.6917 40.6302C23.7115 40.5763 23.7512 40.5201 23.8108 40.4616C23.8704 40.403 23.9404 40.3528 24.0209 40.3109C24.1013 40.269 24.184 40.2459 24.2688 40.2415C24.5359 40.2279 24.7365 40.3375 24.8708 40.5701C25.0049 40.8003 25.0809 41.0914 25.0985 41.4434C25.1046 41.5641 25.097 41.6616 25.0757 41.7358C25.0543 41.8074 25.0224 41.8444 24.9799 41.8465C24.935 41.8488 24.9119 41.8361 24.9105 41.8085C24.9212 41.6743 24.9234 41.5431 24.917 41.4148C24.9007 41.0905 24.8322 40.8481 24.7116 40.6879C24.5908 40.5251 24.4381 40.4485 24.2534 40.4579C24.1636 40.4625 24.0774 40.4896 23.9948 40.5391C23.9147 40.5886 23.8505 40.6549 23.8021 40.7381C23.7563 40.8211 23.7359 40.9141 23.7411 41.0172C23.7469 41.1329 23.7582 41.2332 23.775 41.318C23.7918 41.4029 23.8169 41.505 23.8504 41.6243C23.8863 41.7409 23.9129 41.848 23.9303 41.9454Z"
            fill="#161616" />
        <path
            d="M26.1951 41.8186C26.0478 41.8261 25.9127 41.8002 25.7896 41.7409C25.6689 41.679 25.5719 41.5907 25.4986 41.4759C25.4276 41.3586 25.3883 41.2232 25.3806 41.0698C25.368 40.8183 25.4497 40.6263 25.6257 40.4938C25.8041 40.3612 26.0269 40.288 26.2939 40.2744C26.4162 40.2682 26.5312 40.2926 26.6391 40.3476C26.7494 40.4025 26.8399 40.4848 26.9104 40.5947C26.981 40.7045 27.02 40.8336 27.0275 40.982C27.0356 41.1429 27.0015 41.2859 26.9252 41.4108C26.8487 41.5332 26.7448 41.6305 26.6133 41.7027C26.4842 41.7723 26.3448 41.811 26.1951 41.8186ZM26.1431 41.6057C26.3752 41.5939 26.5485 41.5321 26.6629 41.4204C26.7774 41.3086 26.8296 41.1509 26.8193 40.9472C26.8124 40.8089 26.759 40.6919 26.6591 40.5961C26.5617 40.5003 26.4294 40.4566 26.2622 40.4651C26.1499 40.4708 26.0374 40.498 25.9248 40.5466C25.8121 40.5952 25.7205 40.6642 25.65 40.7535C25.5794 40.8428 25.5471 40.9478 25.5532 41.0685C25.5582 41.1691 25.5879 41.2621 25.6423 41.3476C25.6965 41.4306 25.7673 41.4963 25.8548 41.5448C25.9447 41.5906 26.0408 41.6109 26.1431 41.6057Z"
            fill="#161616" />
        <path
            d="M27.9674 41.7244C27.9427 41.7307 27.9266 41.7341 27.9192 41.7345C27.8418 41.7384 27.7852 41.6833 27.7495 41.5692C27.7162 41.4549 27.6944 41.2934 27.6839 41.0847C27.6796 40.9992 27.6754 40.8658 27.6713 40.6845C27.6707 40.5736 27.669 40.4904 27.6663 40.4351C27.3593 40.4508 27.2041 40.4234 27.2005 40.353C27.1994 40.3304 27.201 40.3126 27.2054 40.2998C27.2122 40.2868 27.2269 40.2798 27.2493 40.2786L27.656 40.2314C27.6473 40.1083 27.6344 39.9741 27.617 39.8288C27.6005 39.6985 27.5882 39.5781 27.5801 39.4676C27.5788 39.44 27.589 39.4205 27.611 39.4093C27.6328 39.3956 27.6562 39.3881 27.6812 39.3868C27.7111 39.3853 27.7369 39.4004 27.7585 39.4321C27.78 39.4612 27.7915 39.4921 27.7932 39.5248L27.854 40.2138L28.1655 40.213C28.2127 40.2056 28.253 40.2123 28.2866 40.2333C28.3227 40.2542 28.3433 40.2909 28.3484 40.3436C28.2972 40.3689 28.2405 40.3857 28.1783 40.3939C28.1162 40.4021 28.0115 40.41 27.8643 40.4175C27.876 40.6513 27.9066 41.0355 27.9559 41.57C27.9587 41.6253 27.9607 41.6643 27.9618 41.6869C27.9653 41.7069 27.9672 41.7194 27.9674 41.7244Z"
            fill="#161616" />
        <path
            d="M16.9282 47.8086C16.9035 47.8149 16.8875 47.8182 16.88 47.8186C16.8026 47.8226 16.746 47.7675 16.7103 47.6533C16.677 47.539 16.6552 47.3775 16.6447 47.1688C16.6404 47.0833 16.6362 46.9499 16.6321 46.7686C16.6315 46.6577 16.6298 46.5746 16.6271 46.5193C16.3201 46.5349 16.1649 46.5075 16.1613 46.4371C16.1602 46.4145 16.1618 46.3968 16.1662 46.3839C16.173 46.371 16.1877 46.3639 16.2101 46.3628L16.6168 46.3156C16.6082 46.1925 16.5952 46.0583 16.5779 45.9129C16.5613 45.7827 16.549 45.6623 16.541 45.5518C16.5396 45.5241 16.5498 45.5047 16.5718 45.4935C16.5936 45.4798 16.617 45.4723 16.642 45.471C16.6719 45.4695 16.6977 45.4845 16.7193 45.5162C16.7408 45.5454 16.7523 45.5763 16.754 45.609L16.8149 46.2979L17.1263 46.2972C17.1735 46.2897 17.2138 46.2965 17.2474 46.3175C17.2835 46.3383 17.3041 46.3751 17.3092 46.4278C17.258 46.4531 17.2013 46.4698 17.1391 46.478C17.077 46.4862 16.9723 46.4941 16.8251 46.5016C16.8368 46.7355 16.8674 47.1196 16.9167 47.6541C16.9195 47.7095 16.9215 47.7484 16.9226 47.7711C16.9261 47.7911 16.928 47.8036 16.9282 47.8086Z"
            fill="#161616" />
        <path
            d="M17.9945 47.7467C17.9821 47.7498 17.966 47.7027 17.9461 47.6054C17.9287 47.508 17.9028 47.3404 17.8683 47.1026C17.8137 46.7121 17.7557 46.3546 17.6943 46.03C17.6355 45.7052 17.5676 45.4251 17.4908 45.1895C17.4848 45.1696 17.4914 45.1516 17.5106 45.1355C17.5298 45.1194 17.5568 45.1105 17.5918 45.1087C17.6093 45.1078 17.623 45.1084 17.6332 45.1104C17.7041 45.2782 17.7554 45.4268 17.7869 45.5563C17.8209 45.6857 17.854 45.8453 17.886 46.0353L17.9121 46.1815C18.0573 46.0833 18.1923 46.031 18.3171 46.0247C18.5442 46.0131 18.7104 46.1092 18.8157 46.3131C18.9233 46.5144 18.9868 46.8061 19.006 47.1883C19.0133 47.3342 19.0108 47.4578 18.9983 47.5593C18.9858 47.6583 18.967 47.7084 18.9421 47.7097C18.9097 47.7113 18.8723 47.6893 18.8299 47.6435L18.8237 47.5191L18.8068 47.1077C18.8029 47.0298 18.7955 46.9331 18.7847 46.8177C18.7674 46.6219 18.72 46.4756 18.6426 46.3787C18.5676 46.2817 18.4441 46.2375 18.2719 46.2463C18.1571 46.2522 18.0519 46.3004 17.9564 46.391C17.9612 46.4865 17.9699 46.5844 17.9824 46.6846C17.9975 46.7847 18.0136 46.8822 18.0309 46.9771C18.055 47.1095 18.0735 47.2271 18.0861 47.3298C18.1012 47.4299 18.1118 47.5415 18.118 47.6647C18.1045 47.6957 18.088 47.7167 18.0686 47.7277C18.0516 47.7387 18.0269 47.745 17.9945 47.7467Z"
            fill="#161616" />
        <path
            d="M20.2431 47.6396C20.0834 47.6477 19.9346 47.6238 19.7967 47.5678C19.6587 47.5118 19.547 47.428 19.4613 47.3164C19.3756 47.2048 19.329 47.0735 19.3214 46.9227C19.313 46.7542 19.3363 46.5954 19.3913 46.4464C19.4463 46.2948 19.5314 46.172 19.6468 46.0779C19.7645 45.9811 19.9045 45.9286 20.0667 45.9203C20.2364 45.9117 20.3677 45.9604 20.4606 46.0666C20.5534 46.1703 20.6014 46.3053 20.6048 46.4715C20.6122 46.6198 20.5593 46.736 20.4459 46.8199C20.335 46.9037 20.1897 46.9502 20.01 46.9594C19.9826 46.9608 19.9413 46.9604 19.8861 46.9581C19.7958 46.9527 19.7315 46.9421 19.6931 46.9264C19.6548 46.9107 19.6343 46.8764 19.6317 46.8236C19.6308 46.806 19.6352 46.7932 19.6448 46.7852C19.6542 46.7746 19.674 46.7685 19.7039 46.767C19.7363 46.7654 19.7941 46.77 19.8772 46.7809C19.9578 46.7919 20.0294 46.7958 20.0917 46.7926C20.3213 46.7809 20.4311 46.6745 20.421 46.4733C20.4149 46.3526 20.3876 46.2582 20.3392 46.1901C20.2932 46.1218 20.2153 46.0905 20.1055 46.0961C19.9858 46.1022 19.8801 46.1404 19.7885 46.2106C19.6969 46.2783 19.6274 46.365 19.5802 46.4708C19.5355 46.5764 19.516 46.6871 19.5218 46.8028C19.5318 47.0014 19.5949 47.1621 19.7111 47.2847C19.8273 47.4049 20.0001 47.4591 20.2297 47.4474C20.2572 47.446 20.3032 47.4411 20.3678 47.4328C20.3951 47.4288 20.4285 47.4196 20.4678 47.405C20.5071 47.3904 20.5353 47.3801 20.5525 47.3742C20.6579 47.331 20.7356 47.3081 20.7855 47.3056C20.8229 47.3037 20.8521 47.3123 20.8731 47.3314C20.8155 47.4301 20.7255 47.5053 20.603 47.5569C20.4829 47.6059 20.3629 47.6334 20.2431 47.6396Z"
            fill="#161616" />
        <path
            d="M22.8944 47.5081C22.6025 47.523 22.372 47.468 22.2031 47.343C22.0366 47.2153 21.9463 47.0107 21.9321 46.729C21.9249 46.5857 21.953 46.4481 22.0165 46.3163C22.0823 46.1818 22.1731 46.0726 22.289 45.9885C22.4072 45.9018 22.5362 45.8549 22.676 45.8478C22.8182 45.8405 22.9408 45.8658 23.0438 45.9236C23.1466 45.9788 23.201 46.0643 23.2068 46.18C23.2108 46.2604 23.1988 46.319 23.1706 46.3558C23.1448 46.3899 23.1144 46.4078 23.0795 46.4096C23.0734 46.2889 23.036 46.1925 22.9674 46.1203C22.8987 46.0482 22.8045 46.0152 22.6847 46.0213C22.5649 46.0274 22.463 46.0654 22.3789 46.1352C22.2947 46.2025 22.2316 46.2902 22.1895 46.3982C22.1497 46.5036 22.1327 46.6129 22.1384 46.7261C22.1504 46.965 22.2384 47.1231 22.4024 47.2004C22.5689 47.2777 22.7844 47.3095 23.0489 47.296C23.1388 47.2915 23.2558 47.2805 23.4 47.263C23.405 47.2628 23.4165 47.2672 23.4345 47.2764C23.4525 47.2855 23.4665 47.2911 23.4766 47.2931L23.4777 47.3158C23.4814 47.3887 23.42 47.4372 23.2937 47.4613C23.1673 47.4854 23.0342 47.501 22.8944 47.5081Z"
            fill="#161616" />
        <path
            d="M25.3577 47.3598C25.3127 47.3621 25.2756 47.3451 25.2463 47.3088C25.2193 47.2698 25.1938 47.2106 25.1698 47.1312C25.1457 47.0492 25.1073 46.9075 25.0546 46.7059C25.0206 46.8766 24.9475 47.0152 24.8353 47.1218C24.7229 47.2258 24.5819 47.2822 24.4122 47.2908C24.2575 47.2987 24.1238 47.2513 24.011 47.1487C23.9007 47.0434 23.8148 46.9028 23.7534 46.7269C23.6919 46.5485 23.6559 46.355 23.6454 46.1463C23.6406 46.0507 23.6453 45.9685 23.6593 45.8997C23.6758 45.8283 23.6968 45.7743 23.7225 45.7377C23.7507 45.701 23.7786 45.6831 23.8061 45.6843C23.8361 45.6827 23.8521 45.7021 23.8541 45.7423C23.8557 45.775 23.8496 45.827 23.8356 45.8983C23.8221 45.9772 23.8178 46.0669 23.8229 46.1675C23.8305 46.3183 23.8591 46.4644 23.9087 46.6055C23.9608 46.7466 24.0316 46.8615 24.1211 46.9502C24.213 47.0363 24.3176 47.0763 24.4349 47.0703C24.5322 47.0654 24.6194 47.0319 24.6963 46.97C24.7733 46.9081 24.832 46.832 24.8725 46.7417C24.9155 46.6513 24.9349 46.5633 24.9306 46.4778L24.9004 45.878C24.9252 45.8238 24.9613 45.7955 25.0088 45.7931C25.0512 45.7909 25.0817 45.8259 25.1004 45.8981C25.119 45.9703 25.1317 46.073 25.1383 46.2063C25.144 46.3194 25.1471 46.4062 25.1477 46.4667C25.1668 46.5489 25.1935 46.632 25.2277 46.716C25.2645 46.7999 25.3093 46.8946 25.3621 47.0003C25.4262 47.1307 25.459 47.211 25.4605 47.2411C25.4643 47.3166 25.43 47.3561 25.3577 47.3598Z"
            fill="#161616" />
        <path
            d="M25.9724 47.3209C25.9038 47.0496 25.845 46.7274 25.7963 46.3542C25.7499 45.9784 25.7179 45.6145 25.7002 45.2625C25.6913 45.0864 25.6872 44.9303 25.6879 44.7942C25.6863 44.7615 25.7104 44.7438 25.7603 44.7413C25.8002 44.7393 25.8257 44.748 25.8367 44.7677C25.8502 44.7871 25.858 44.8183 25.8602 44.861C25.8806 45.2684 25.9056 45.6163 25.9351 45.9047C25.9645 46.1906 26 46.4989 26.0416 46.8296C26.0673 47.0425 26.0845 47.1866 26.0933 47.2618C26.0978 47.3019 26.0776 47.3231 26.0327 47.3254C26.0177 47.3262 25.9976 47.3247 25.9724 47.3209Z"
            fill="#161616" />
        <path
            d="M26.9058 48.6461C26.8559 48.6486 26.7892 48.5171 26.7058 48.2516C26.6249 47.986 26.5488 47.6899 26.4773 47.3632C26.4085 47.039 26.3719 46.8341 26.3676 46.7486C26.3549 46.4947 26.4305 46.3055 26.5943 46.1812C26.7581 46.0543 26.9735 45.9841 27.2405 45.9705C27.3828 45.9632 27.519 45.9865 27.6493 46.0404C27.7795 46.0917 27.8861 46.1708 27.969 46.2775C28.0518 46.3817 28.0968 46.5054 28.104 46.6488C28.1129 46.8273 28.0569 46.9562 27.9357 47.0355C27.8171 47.1147 27.6642 47.159 27.4771 47.1686C27.2824 47.1785 27.1148 47.1543 26.9743 47.0959C26.8361 47.0348 26.7641 46.9465 26.7583 46.8308L26.7602 46.7929C26.7766 46.7719 26.7948 46.7609 26.8148 46.7599C26.8323 46.759 26.8514 46.7656 26.8721 46.7796C26.8952 46.7911 26.9196 46.8049 26.9455 46.8213C27.0258 46.8752 27.1042 46.9178 27.1808 46.9492C27.26 46.9805 27.3569 46.9932 27.4717 46.9873C27.6289 46.9793 27.7386 46.946 27.8007 46.8873C27.8652 46.8261 27.8943 46.7338 27.8881 46.6106C27.8836 46.5201 27.8496 46.4411 27.7862 46.3738C27.7227 46.3064 27.6427 46.2563 27.5459 46.2234C27.4492 46.1905 27.3509 46.1766 27.2511 46.1817C27.019 46.1936 26.8469 46.2528 26.7346 46.3593C26.6223 46.4634 26.5781 46.6308 26.6022 46.8615C26.6444 47.2526 26.6959 47.5803 26.7567 47.8444C26.82 48.1084 26.9174 48.3303 27.0491 48.5102L27.0532 48.5175C27.0534 48.5226 27.0475 48.5279 27.0352 48.5336C27.0256 48.5416 27.0185 48.5483 27.0137 48.5536C26.9862 48.6029 26.9502 48.6337 26.9058 48.6461Z"
            fill="#161616" />
        <path
            d="M28.7622 47.2051C28.6498 47.0092 28.5568 46.7769 28.4833 46.5084C28.4122 46.2397 28.3717 46.0061 28.3617 45.8074C28.3578 45.7295 28.3728 45.6783 28.4066 45.6539C28.4259 45.6403 28.4406 45.6332 28.4505 45.6327C28.468 45.6318 28.4812 45.645 28.4901 45.6723C28.5014 45.6995 28.5139 45.7492 28.5276 45.8217L28.5531 45.9565C28.5737 45.8193 28.6208 45.7098 28.6942 45.6279C28.77 45.5433 28.8654 45.4981 28.9801 45.4923C29.1074 45.4858 29.2035 45.5061 29.2684 45.5532C29.3332 45.5978 29.3684 45.6767 29.3741 45.7898C29.2463 45.7358 29.1313 45.7115 29.0289 45.7167C28.9316 45.7216 28.8493 45.7523 28.7821 45.8087C28.7149 45.865 28.6702 45.9455 28.6479 46.05C28.629 46.1215 28.6211 46.1888 28.6242 46.2516C28.6276 46.3195 28.6396 46.3832 28.6601 46.4427C28.683 46.4995 28.7165 46.5696 28.7607 46.6531C28.8026 46.7392 28.8351 46.8132 28.8582 46.875C28.8838 46.9367 28.8997 47.004 28.9059 47.0768C28.908 47.1195 28.8946 47.1517 28.8657 47.1734C28.8366 47.1925 28.8021 47.2031 28.7622 47.2051Z"
            fill="#161616" />
        <path
            d="M29.8426 47.1538C29.7852 47.1567 29.7348 47.0749 29.6914 46.9082C29.6479 46.7389 29.618 46.593 29.6018 46.4703C29.5857 46.3476 29.5622 46.1534 29.5313 45.8877C29.5267 45.8451 29.5226 45.7898 29.5192 45.7219C29.5149 45.6364 29.5182 45.577 29.529 45.5437C29.5424 45.5102 29.5653 45.4927 29.5977 45.491C29.6251 45.4896 29.6467 45.4948 29.6623 45.5066C29.6803 45.5158 29.6961 45.5326 29.7098 45.5572L29.7137 45.7082C29.7218 45.8692 29.7369 46.0209 29.7591 46.1635C29.7837 46.3059 29.8196 46.497 29.8667 46.7366C29.8919 46.8412 29.91 46.9273 29.9209 46.9948C29.9277 47.0297 29.9232 47.0652 29.9075 47.1013C29.8917 47.1349 29.87 47.1524 29.8426 47.1538ZM29.6448 45.084C29.5899 45.0868 29.5477 45.0675 29.5181 45.0262C29.491 44.9847 29.4758 44.9325 29.4727 44.8696C29.4713 44.842 29.4715 44.8218 29.4734 44.8091C29.4689 44.769 29.4903 44.7477 29.5377 44.7453C29.5727 44.7435 29.608 44.7506 29.6439 44.7664C29.6821 44.7796 29.6939 44.7903 29.6793 44.7986C29.7075 44.8627 29.7226 44.9136 29.7245 44.9513C29.7261 44.984 29.7199 45.0108 29.706 45.0317C29.6919 45.0501 29.6715 45.0675 29.6448 45.084Z"
            fill="#161616" />
        <path
            d="M30.8669 47.0978C30.8422 47.1041 30.8261 47.1074 30.8186 47.1078C30.7412 47.1118 30.6847 47.0567 30.6489 46.9425C30.6157 46.8282 30.5938 46.6667 30.5833 46.458C30.579 46.3725 30.5748 46.2391 30.5707 46.0578C30.5701 45.9469 30.5685 45.8638 30.5657 45.8085C30.2587 45.8241 30.1035 45.7968 30.1 45.7263C30.0988 45.7037 30.1004 45.686 30.1048 45.6732C30.1117 45.6602 30.1263 45.6532 30.1488 45.652L30.5555 45.6048C30.5468 45.4817 30.5338 45.3475 30.5165 45.2021C30.4999 45.0719 30.4876 44.9515 30.4796 44.841C30.4782 44.8133 30.4885 44.7939 30.5104 44.7827C30.5323 44.769 30.5556 44.7615 30.5806 44.7602C30.6105 44.7587 30.6363 44.7738 30.6579 44.8054C30.6794 44.8346 30.691 44.8655 30.6926 44.8982L30.7535 45.5871L31.0649 45.5864C31.1121 45.5789 31.1525 45.5857 31.186 45.6067C31.2221 45.6275 31.2427 45.6643 31.2479 45.717C31.1966 45.7423 31.1399 45.759 31.0778 45.7672C31.0156 45.7755 30.9109 45.7833 30.7637 45.7908C30.7755 46.0247 30.806 46.4089 30.8554 46.9433C30.8581 46.9987 30.8601 47.0376 30.8612 47.0603C30.8647 47.0803 30.8666 47.0928 30.8669 47.0978Z"
            fill="#161616" />
    </g>
    <defs>
        <clipPath id="clip0_239_11927">
            <rect width="12.5935" height="12.0103" fill="white"
                transform="translate(17.2859 16.4618)" />
        </clipPath>
    </defs>
</svg>
    